# xmcd
#
# Track frame offsets:
#	150
#	11759
#	27209
#	41759
#	56729
#	67139
#	77056
#	89713
#	103334
#	116385
#	133167
#	150714
#	167431
#	174824
#	191169
#	209074
#	227522
#	241282
#	263176
#
# Disc length: 3678 seconds
#
# Revision: 0
# Processed by: cddbd v1.5.2PL0 Copyright (c) Steve Scherf et al.
# Submitted via: audiograbber 1.83.01
#
DISCID=0d0e5c13
DTITLE=V.A. / You're Still Young At Heart
DYEAR=2003
DGENRE=Indie Pop
TTITLE0=Maybellines, The / This And That (Acid House Kings)
TTITLE1=Brideshead / Love Makes The Sun Shine Bright (The Crooner)
TTITLE2=Charming / I Was Wrong (Majestic)
TTITLE3=Laura Watling / Sunday Came And Went (The Castaway Stones)
TTITLE4=Den Baron / Alcohol Future Beat (One Night Suzan)
TTITLE5=Free Loan Investments / Rush Hour (The Shermans)
TTITLE6=California Snow Story / This Trip )Brittle Stars)
TTITLE7=Carnival Park / Candy Coated Kisses (The Autocollants)
TTITLE8=Sometimes I Wonder / My Fondest Wish (Laura Watling)
TTITLE9=Daydream Cycle / Lousy Judge Of Character (The Shermans)
TTITLE10=Carbonado / Here Comes Another Day (Johnny Dee)
TTITLE11=Soft Pillow Kisses / Over The Rainbow (The Crooner)
TTITLE12=Shermans, The / Plastic Bouquet (Tara Emelye Needham)
TTITLE13=Majestic / Before I Came (Club 8)
TTITLE14=Sweetling, The / You Went In Phases (Brittle Stars)
TTITLE15=Souvenir / Rollerskate (Call And Response)
TTITLE16=Calories / The First Phase At High Noon (Phoebe Quest)
TTITLE17=Simpático / Downtown (Charming)
TTITLE18=River / Lovesick (The Arrogants)
EXTD=
EXTT0=
EXTT1=
EXTT2=
EXTT3=
EXTT4=
EXTT5=
EXTT6=
EXTT7=
EXTT8=
EXTT9=
EXTT10=
EXTT11=
EXTT12=
EXTT13=
EXTT14=
EXTT15=
EXTT16=
EXTT17=
EXTT18=
PLAYORDER=
